<svg width="117" height="123" viewBox="0 0 117 123" fill="none" xmlns="http://www.w3.org/2000/svg">
<path fill-rule="evenodd" clip-rule="evenodd" d="M39.2515 13.2489C38.4113 13.2489 37.8144 13.2794 37.2218 13.2413C36.4206 13.1896 35.9662 13.644 35.6203 14.2629C35.4728 14.5274 35.3769 14.9505 35.711 15.0437C36.3248 15.215 36.8318 14.9098 37.2956 14.4613C37.767 14.0068 38.6394 14.2697 39.2515 13.2489ZM34.1722 49.0006C31.5397 49.2295 29.4854 50.5665 27.6635 52.3478C30.1917 51.9196 32.0628 50.2333 34.1722 49.0006ZM51.36 90.9295C52.3469 90.6252 53.321 90.2682 54.3223 90.0266C57.4431 89.2746 59.4423 86.7625 62.0214 85.1618C62.4894 84.871 62.6776 84.2182 62.3758 83.7214C62.0078 83.1135 61.5466 83.5467 61.2812 83.8875C58.6979 87.2229 54.8446 88.6379 51.36 90.9295ZM63.6288 111.89C65.5822 111.283 67.5704 110.769 69.483 110.052C77.1397 107.184 83.8578 102.652 90.4335 97.9215C90.9931 97.5188 92.3267 96.3785 91.1643 94.9168C83.3288 102.824 73.4203 107.198 63.6288 111.89ZM41.5804 5.89319C34.8776 5.30226 13.7287 20.8284 10.6655 27.8399C19.7236 18.7648 29.3371 10.4799 41.5804 5.89319ZM51.9823 8.79189C52.0798 9.94408 52.848 11.3811 50.5682 10.5681C49.3566 10.1357 48.6699 12.1221 47.0243 12.3086C46.1409 12.4078 44.6987 12.8767 43.5431 13.2565C42.7877 13.5058 41.8263 13.2124 41.5601 14.3349C41.4779 14.6808 41.2371 14.9259 40.9005 14.7326C39.1845 13.7466 38.062 15.137 36.8326 15.8051C31.8136 18.5359 26.9734 21.6499 22.7427 25.4337C16.6978 30.8394 10.9784 36.6343 6.14411 43.2108C6.0534 43.3346 6.00677 43.5406 5.88977 43.589C4.80032 44.0375 6.08222 47.0845 3.543 45.8399C0.0762683 44.1417 -0.716443 42.6258 0.600221 40.0502C2.14834 37.0217 3.83465 34.0527 5.6244 31.1582C12.1094 20.669 21.1794 12.8674 31.7958 6.8843C38.9463 2.85461 46.8293 0.87919 55.0167 0.29589C61.3287 -0.154302 67.6475 -0.256041 73.8671 1.20221C76.0333 1.70921 78.2775 2.18483 80.2275 3.18187C81.2491 3.70497 82.3046 3.96271 83.2287 4.40019C86.8193 6.09752 90.9422 6.85802 93.7553 10.1069C94.4428 10.8996 95.8748 10.8207 96.9541 11.5456C107.134 18.3841 113.552 27.7703 115.482 39.8094C117.367 51.5627 117.809 63.4161 114.99 75.166C114.356 77.8087 113.115 80.1368 111.902 82.5539C110.509 85.3305 108.689 87.9138 107.692 90.8965C107.478 91.5349 107.205 92.2648 106.725 92.6837C103.844 95.2 101.838 98.4836 99.1228 101.158C96.0554 104.179 92.6989 106.741 89.1126 109.106C86.2834 110.971 83.6815 113.22 80.9456 115.217C77.6068 117.653 73.5415 118.847 69.6229 120.203C66.0078 121.454 62.2647 122.058 58.5148 122.681C57.8976 122.783 57.3855 123.147 56.9209 122.412C56.7946 122.212 56.3639 122.015 56.1595 122.082C50.246 124.041 42.3774 122.167 37.6203 119.697C31.6423 116.593 26.1756 112.703 21.8305 107.603C18.3205 103.481 15.872 98.6286 14.5231 93.2331C13.4845 89.0813 12.3179 84.9778 11.6041 80.7413C10.6104 74.8523 12.2043 69.5941 15.1319 64.6344C17.5914 60.4665 20.3459 56.4911 23.2565 52.6123C26.1696 48.7284 30.4655 47.1049 34.7148 45.7551C39.8119 44.1358 45.1608 43.427 50.5843 43.6356C54.3808 43.7814 57.6025 45.1252 60.3291 47.7297C64.0782 51.3109 66.7904 55.6009 68.932 60.2851C70.7217 64.202 70.7946 68.4928 71.6026 72.6192C71.7959 73.6001 71.1287 74.3046 69.9476 74.3869C68.9464 74.4564 68.1579 74.8769 68.5555 76.1427C68.7124 76.1427 68.7878 76.1486 68.8616 76.1419C69.8281 76.0571 69.9646 74.1147 71.1821 74.9117C72.2842 75.634 71.9875 76.9693 71.8934 78.119C71.4966 82.9541 69.7077 87.1805 66.0757 90.4395C63.065 93.1398 60.391 96.1504 56.2604 97.5663C47.9213 100.427 43.7916 98.002 37.7152 92.3784C35.7186 90.5311 35.1167 87.9198 34.1815 85.4925C31.3913 78.2538 36.842 73.3975 42.9522 73.3313C42.2918 75.8103 38.9861 75.3042 37.8712 77.8739C39.9535 77.244 41.2608 76.0257 42.814 75.3084C43.5058 74.9888 44.7259 74.1461 44.9997 75.016C45.3244 76.0477 47.0412 76.4674 45.8568 78.5124C44.5953 80.6913 43.2032 83.0465 42.519 85.601C41.9357 87.7756 43.349 89.4814 45.5177 89.2898C51.5881 88.7557 56.8209 86.1376 61.0413 81.9774C63.7687 79.2907 64.5106 75.3593 64.2079 71.5297C63.8883 67.5034 63.7034 63.4203 62.04 59.606C61.5398 58.4606 59.2032 54.3368 58.1765 53.5678C57.4016 52.9879 56.4851 52.7107 55.4669 52.7166C54.9429 52.7191 54.0782 53.2761 53.9874 51.979C53.9442 51.3601 52.8497 51.3406 52.8081 51.8357C52.6682 53.4966 51.3897 53.0795 50.5775 53.1286C46.1188 53.3948 41.9654 55.043 37.6499 55.9434C35.8899 56.3113 34.3468 57.5848 33.7754 59.5153C33.516 60.3902 33.0209 61.1304 32.3426 61.5441C28.8148 63.6925 27.8585 67.4492 26.1866 70.815C25.1946 72.8116 23.3277 74.2902 22.6359 76.5692C21.4973 80.3208 21.4337 84.1266 22.2535 87.8519C23.1607 91.9698 24.2035 96.1046 25.9526 99.9673C28.4842 105.556 33.3566 108.324 38.8572 110.292C40.9861 111.054 43.4355 110.613 45.41 112.228C45.7187 112.481 47.5499 111.481 48.82 111.359C60.8726 110.199 71.6619 105.638 81.8578 99.2814C88.4098 95.1966 93.3212 89.6442 97.6307 83.4051C104.176 73.9299 106.114 63.1516 106.354 51.9663C106.473 46.3529 106.314 40.7208 105.582 35.1252C104.529 27.0878 100.409 21.3125 93.2915 17.4125C90.0393 15.6296 86.6895 13.9856 83.4322 12.2315C82.1198 11.5244 80.0935 10.5036 77.7688 11.0072C75.7484 11.4447 73.3618 10.2959 71.0498 10.2273C68.5615 10.1543 66.1189 9.18698 63.5754 9.85845C62.9192 10.0314 62.7725 9.81436 63.1346 9.15646C63.4143 8.64776 62.7751 8.37731 62.5453 8.58502C60.4699 10.4468 57.5067 8.83344 55.2693 10.6384C53.9188 11.7279 53.4982 9.14119 51.9823 8.79189Z" fill="currentColor"/>
</svg>
